{"glyphs":{"0":{"ha":640,"x_min":32,"x_max":624,"o":"m 590 789 q 617 713 610 751 q 624 635 624 675 l 624 474 l 624 313 q 617 233 624 271 q 590 158 610 196 q 481 42 551 85 q 328 0 411 0 q 175 42 244 0 q 67 157 106 85 q 40 233 47 196 q 32 313 32 271 l 32 474 l 32 635 q 40 714 32 676 q 67 789 47 751 q 175 905 106 863 q 328 947 244 947 q 481 905 411 947 q 590 789 551 863 m 367 251 q 385 280 382 265 q 388 314 388 294 l 388 381 l 388 651 q 378 685 388 671 q 353 706 368 699 q 320 710 338 713 q 289 696 303 708 q 272 667 274 682 q 269 633 269 651 l 269 567 l 269 296 q 279 263 269 276 q 303 242 289 249 q 335 238 318 236 q 367 251 353 239 z "},"1":{"ha":432,"x_min":33,"x_max":389,"o":"m 271 949 l 389 949 l 389 0 l 153 0 l 153 711 l 33 711 l 33 949 l 153 949 l 271 949 l 271 949 z "},"2":{"ha":654,"x_min":29,"x_max":625,"o":"m 622 238 l 622 0 l 29 0 l 29 285 l 29 308 q 88 473 33 400 q 229 576 142 546 q 274 588 251 585 q 321 593 297 592 q 365 607 347 593 q 385 649 383 621 q 368 693 386 678 q 327 709 350 708 q 285 695 304 710 q 267 651 267 681 l 29 651 q 60 785 29 726 q 139 883 90 844 q 249 938 188 921 q 371 946 310 954 q 488 902 432 938 q 582 801 543 867 q 616 710 607 758 q 619 615 625 663 q 592 524 614 568 q 536 444 571 479 q 460 386 500 407 q 367 358 419 365 q 320 356 343 356 q 278 332 297 357 q 269 311 272 324 q 266 285 267 299 q 266 258 265 271 q 267 238 267 246 l 326 238 l 349 238 l 622 238 z "},"3":{"ha":654,"x_min":32,"x_max":632,"o":"m 422 935 q 543 859 494 911 q 612 742 592 807 q 622 607 632 678 q 565 476 611 536 q 622 345 611 415 q 612 210 632 275 q 543 94 592 146 q 422 18 494 42 q 280 6 350 -7 q 155 58 210 18 q 66 160 100 97 q 32 299 32 222 l 269 299 q 276 271 269 283 q 294 250 283 258 q 319 240 306 242 q 349 243 333 238 q 372 259 363 249 q 385 283 382 269 q 386 311 389 297 q 374 338 383 325 q 350 352 364 347 q 320 358 336 357 q 290 358 304 358 q 265 357 275 357 q 208 358 236 358 q 150 358 179 358 l 150 594 l 326 594 q 360 604 346 594 q 382 630 375 614 q 387 663 389 646 q 371 694 385 681 q 340 712 357 708 q 306 709 322 715 q 280 688 290 703 q 269 654 269 674 l 32 654 q 66 792 32 729 q 155 894 100 854 q 280 946 210 933 q 422 935 350 958 z "},"4":{"ha":654,"x_min":28,"x_max":621,"o":"m 621 947 l 621 0 l 383 0 l 383 296 q 276 301 328 296 q 172 339 224 307 q 89 410 119 371 q 40 508 58 450 q 32 558 35 529 q 28 619 29 588 q 28 678 28 650 q 29 728 29 707 l 29 947 l 265 947 l 265 888 l 265 694 q 265 669 265 688 q 265 631 265 651 q 267 592 265 610 q 271 568 268 574 q 292 542 279 550 q 322 533 306 535 q 354 532 338 531 q 383 533 371 533 l 383 947 l 621 947 z "},"5":{"ha":654,"x_min":32,"x_max":628,"o":"m 269 713 l 269 594 q 360 592 315 594 q 449 569 404 589 q 525 522 493 550 q 582 450 557 493 q 617 365 607 410 q 624 276 628 321 q 604 189 621 232 q 558 110 588 146 q 458 29 514 56 q 343 1 401 3 q 229 19 285 -1 q 130 78 174 39 q 59 172 86 117 q 32 297 32 228 l 269 297 q 281 263 269 276 q 308 242 292 249 q 342 240 324 236 q 374 258 360 243 q 389 292 388 275 q 382 324 390 310 q 358 348 374 339 q 321 357 342 357 l 32 357 l 32 950 l 625 950 l 625 713 l 351 713 l 329 713 l 269 713 z "},"6":{"ha":654,"x_min":31,"x_max":626,"o":"m 569 468 q 624 308 621 396 q 581 144 626 219 q 500 56 547 89 q 399 9 453 22 q 289 3 344 -4 q 185 36 233 10 q 99 107 136 63 q 43 214 61 151 q 31 297 31 256 q 31 382 31 339 l 31 556 q 31 642 31 600 q 40 722 32 683 q 69 798 49 761 q 126 871 89 835 q 229 933 174 914 q 340 949 285 951 q 446 924 394 946 q 537 863 497 901 q 600 770 576 824 q 624 653 624 717 l 386 653 q 378 683 386 669 q 357 703 369 696 q 329 712 344 711 q 299 704 314 713 q 276 682 283 696 q 267 653 269 668 q 267 622 265 638 q 268 593 268 606 q 357 590 315 593 q 435 574 399 586 q 506 536 472 561 q 569 468 539 511 m 282 260 q 324 238 299 239 q 369 256 350 236 q 387 300 389 274 q 365 343 385 326 q 344 353 357 350 q 317 356 331 356 q 290 356 303 357 q 268 356 276 356 q 267 334 268 347 q 268 308 267 321 q 272 281 269 294 q 282 260 275 268 z "},"7":{"ha":654,"x_min":31,"x_max":622,"o":"m 31 949 l 622 949 l 622 711 l 438 0 l 192 0 l 378 711 l 31 711 l 31 949 l 31 949 z "},"8":{"ha":654,"x_min":25,"x_max":626,"o":"m 326 949 q 439 927 388 949 q 528 869 490 906 q 591 785 567 832 q 621 685 615 738 q 613 578 626 632 q 563 475 599 524 q 622 318 618 401 q 591 164 626 235 q 486 47 556 93 q 325 0 417 0 q 165 47 233 0 q 60 164 96 93 q 29 318 25 235 q 89 475 33 401 q 39 578 53 524 q 31 685 25 632 q 60 785 36 738 q 124 869 85 832 q 214 927 163 906 q 326 949 265 949 m 325 593 q 367 610 350 593 q 385 653 385 628 q 367 694 385 676 q 325 711 350 711 q 284 694 301 711 q 267 653 267 676 q 284 610 267 628 q 325 593 301 593 m 325 356 q 284 338 301 356 q 267 297 267 321 q 284 255 267 272 q 325 238 301 238 q 367 255 350 238 q 385 297 385 272 q 367 338 385 321 q 325 356 350 356 z "},"9":{"ha":654,"x_min":28,"x_max":624,"o":"m 624 394 q 623 308 624 350 q 614 227 622 267 q 585 151 606 188 q 528 79 565 114 q 425 17 481 36 q 315 0 369 -3 q 208 26 260 3 q 117 88 157 49 q 54 179 78 126 q 31 297 31 232 l 268 297 q 276 267 268 281 q 297 247 285 254 q 325 238 310 239 q 356 246 340 238 q 378 268 371 254 q 387 297 385 282 q 388 328 389 313 q 386 357 386 344 q 297 360 339 357 q 219 376 256 364 q 149 414 182 389 q 85 482 115 439 q 31 642 35 554 q 74 806 28 731 q 155 894 107 861 q 256 941 203 928 q 365 947 310 954 q 469 913 421 939 q 556 842 518 888 q 611 736 593 797 q 624 651 624 693 q 624 568 624 610 l 624 394 m 286 694 q 268 649 267 675 q 290 607 269 624 q 312 597 299 600 q 338 593 325 594 q 365 592 351 592 q 386 593 378 593 q 387 615 386 601 q 387 642 388 628 q 383 669 386 656 q 374 690 381 682 q 331 713 357 711 q 286 694 304 714 z "},"\u0000":{"ha":0,"x_min":0,"x_max":0,"o":""},"\r":{"ha":475,"x_min":0,"x_max":0,"o":""}," ":{"ha":475,"x_min":0,"x_max":0,"o":""},"E":{"ha":654,"x_min":29,"x_max":621,"o":"m 621 711 l 265 711 l 265 593 l 621 593 l 621 356 l 265 356 l 265 238 l 621 238 l 621 0 l 265 0 l 207 0 l 29 0 l 29 949 l 207 949 l 265 949 l 621 949 l 621 711 l 621 711 z "},"F":{"ha":654,"x_min":33,"x_max":626,"o":"m 626 711 l 271 711 l 271 592 l 626 592 l 626 356 l 271 356 l 271 238 l 271 0 l 211 0 l 33 0 l 33 947 l 211 947 l 271 947 l 626 947 l 626 711 l 626 711 z "},"G":{"ha":654,"x_min":28,"x_max":621,"o":"m 285 593 l 621 593 l 621 297 q 588 160 621 222 q 500 59 554 99 q 377 6 446 19 q 238 15 308 -7 q 119 85 169 36 q 44 200 68 133 q 31 268 33 235 q 28 336 28 301 l 28 475 l 28 614 q 31 683 28 649 q 44 750 33 717 q 119 866 68 817 q 238 936 169 915 q 377 944 308 958 q 500 891 446 931 q 588 790 554 851 q 621 653 621 728 l 383 653 q 367 694 383 676 q 326 713 350 711 q 285 697 303 714 q 265 657 268 681 q 264 566 263 611 q 265 475 265 521 q 264 385 265 431 q 265 293 263 339 q 285 253 268 269 q 326 239 303 238 q 367 256 350 239 q 383 297 383 274 l 383 357 l 285 357 l 285 593 z "},"H":{"ha":654,"x_min":32,"x_max":624,"o":"m 388 949 l 624 949 l 624 593 l 624 356 l 624 0 l 388 0 l 388 356 l 268 356 l 268 0 l 32 0 l 32 356 l 32 593 l 32 949 l 268 949 l 268 593 l 388 593 l 388 949 l 388 949 z "},"I":{"ha":329,"x_min":47,"x_max":285,"o":"m 47 947 l 285 947 l 285 0 l 47 0 l 47 947 l 47 947 z "},"J":{"ha":654,"x_min":22,"x_max":615,"o":"m 615 949 l 615 651 l 615 474 l 615 335 q 613 267 615 300 q 599 199 610 233 q 524 83 575 132 q 406 13 474 33 q 266 4 335 -10 q 143 58 197 18 q 56 159 89 97 q 22 296 22 221 l 26 296 l 260 296 q 276 255 260 272 q 317 238 293 238 q 358 252 340 236 q 378 292 375 268 q 379 383 381 338 q 378 474 378 429 l 378 656 l 378 949 l 615 949 z "},"U":{"ha":654,"x_min":31,"x_max":624,"o":"m 624 947 l 624 592 l 624 474 l 624 313 q 616 233 624 271 q 589 158 608 196 q 480 42 550 85 q 326 0 410 0 q 174 42 243 0 q 65 157 104 83 q 38 233 46 194 q 31 313 31 271 l 31 474 l 31 603 l 31 947 l 268 947 l 268 651 l 268 592 l 268 426 l 268 315 q 279 260 268 283 q 326 236 290 236 q 374 260 363 236 q 386 315 386 283 l 386 426 l 386 615 l 386 651 l 386 947 l 624 947 z "},"O":{"ha":640,"x_min":32,"x_max":624,"o":"m 590 789 q 617 713 610 751 q 624 635 624 675 l 624 474 l 624 313 q 617 233 624 271 q 590 158 610 196 q 481 42 551 85 q 328 0 411 0 q 175 42 244 0 q 67 157 106 85 q 40 233 47 196 q 32 313 32 271 l 32 474 l 32 635 q 40 714 32 676 q 67 789 47 751 q 175 905 106 863 q 328 947 244 947 q 481 905 411 947 q 590 789 551 863 m 367 251 q 385 280 382 265 q 388 314 388 294 l 388 381 l 388 651 q 378 685 388 671 q 353 706 368 699 q 320 710 338 713 q 289 696 303 708 q 272 667 274 682 q 269 633 269 651 l 269 567 l 269 296 q 279 263 269 276 q 303 242 289 249 q 335 238 318 236 q 367 251 353 239 z "},"P":{"ha":654,"x_min":35,"x_max":626,"o":"m 331 947 q 446 924 392 947 q 540 860 500 900 q 603 765 581 819 q 626 650 626 711 q 603 535 626 589 q 539 442 579 482 q 445 378 499 401 q 331 356 392 356 l 328 356 l 271 356 l 271 0 l 35 0 l 35 947 l 271 947 l 331 947 m 389 651 q 372 694 389 676 q 331 711 354 711 l 271 711 l 271 592 l 331 592 q 372 609 354 592 q 389 651 389 626 z "},"N":{"ha":654,"x_min":35,"x_max":626,"o":"m 571 825 q 606 761 594 793 q 622 696 618 729 q 626 628 626 663 q 626 558 626 593 l 626 0 l 390 0 l 390 296 l 390 356 l 390 521 l 390 632 q 378 688 390 664 q 331 711 367 711 q 283 688 294 711 q 272 633 272 664 l 272 521 l 272 332 l 272 296 l 272 0 l 35 0 l 35 558 q 35 628 35 593 q 40 696 35 663 q 56 762 44 729 q 92 826 68 794 q 197 916 133 885 q 331 947 260 947 q 466 915 403 947 q 571 825 529 883 z "},"R":{"ha":654,"x_min":36,"x_max":628,"o":"m 569 474 q 619 362 610 418 q 628 243 628 306 l 628 0 l 392 0 l 392 224 q 392 247 392 232 q 392 278 393 263 q 388 310 390 294 q 378 333 385 325 q 356 349 369 344 q 327 355 342 354 q 298 355 313 356 q 272 354 283 354 l 272 0 l 214 0 l 36 0 l 36 947 l 214 947 q 311 947 264 947 q 402 938 358 947 q 487 905 446 929 q 565 833 528 881 q 612 747 596 793 q 628 654 628 701 q 613 560 628 607 q 569 474 599 514 m 392 651 q 380 686 392 671 q 349 708 368 701 q 310 712 329 714 q 272 710 292 710 l 272 592 q 310 590 292 592 q 349 594 329 588 q 380 616 368 600 q 392 651 392 632 z "},"S":{"ha":654,"x_min":31,"x_max":626,"o":"m 329 593 q 449 569 394 593 q 542 503 503 544 q 603 410 581 463 q 626 302 625 358 q 606 190 626 246 q 538 88 585 135 q 436 20 492 42 q 324 0 381 -1 q 215 24 268 1 q 122 85 163 46 q 56 177 81 124 q 32 297 32 231 l 269 297 q 280 263 269 278 q 306 242 290 249 q 340 239 322 236 q 371 256 357 242 q 388 287 385 269 q 384 320 390 304 q 363 347 378 336 q 329 357 349 357 q 210 381 264 357 q 117 447 156 406 q 56 540 78 488 q 32 648 33 592 q 51 760 31 704 q 119 863 72 815 q 222 930 167 908 q 333 950 276 951 q 442 926 389 949 q 535 865 494 904 q 601 772 576 826 q 625 653 625 718 l 388 653 q 377 687 388 672 q 351 708 367 701 q 317 711 335 714 q 286 694 300 708 q 270 663 272 681 q 274 630 268 646 q 295 603 281 614 q 329 593 310 593 z "},"L":{"ha":571,"x_min":40,"x_max":536,"o":"m 278 238 l 536 238 l 536 0 l 278 0 l 40 0 l 40 238 l 40 947 l 278 947 l 278 238 l 278 238 z "},"W":{"ha":1025,"x_min":38,"x_max":989,"o":"m 986 949 q 988 622 986 785 q 986 294 989 458 q 939 135 986 203 q 822 31 892 67 q 668 1 751 -4 q 513 60 585 6 q 356 1 439 6 q 203 31 274 -4 q 86 135 133 67 q 39 294 39 203 q 38 622 38 458 q 39 949 39 785 l 276 949 l 276 653 l 276 593 l 276 428 l 276 315 q 288 261 276 285 q 335 238 299 238 q 383 261 371 238 q 394 315 394 285 l 394 428 l 394 617 l 394 653 l 394 949 l 631 949 l 631 653 l 631 593 l 631 428 l 631 315 q 642 261 631 285 q 690 238 654 238 q 738 261 726 238 q 750 315 750 285 l 750 428 l 750 617 l 750 653 l 750 949 l 986 949 l 986 949 z "},"K":{"ha":654,"x_min":38,"x_max":631,"o":"m 631 949 l 394 474 l 631 0 l 365 0 l 275 183 l 275 0 l 38 0 l 38 238 l 38 949 l 215 949 l 275 949 l 275 765 l 365 949 l 631 949 l 631 949 z "},"M":{"ha":1033,"x_min":46,"x_max":996,"o":"m 994 654 q 995 327 996 490 q 994 0 994 164 l 757 0 l 757 296 l 757 356 l 757 521 l 757 632 q 746 688 757 664 q 699 711 735 711 q 651 688 663 711 q 639 633 639 664 l 639 521 l 639 332 l 639 296 l 639 0 l 401 0 l 401 296 l 401 356 l 401 521 l 401 632 q 390 688 401 664 q 343 711 379 711 q 295 688 307 711 q 283 633 283 664 l 283 521 l 283 332 l 283 296 l 283 0 l 47 0 q 47 327 47 164 q 47 654 46 490 q 94 814 47 746 q 212 917 142 882 q 365 948 282 953 q 521 889 447 943 q 676 948 593 943 q 830 917 760 953 q 947 814 900 882 q 994 654 994 746 z "},"Q":{"ha":654,"x_min":26,"x_max":631,"o":"m 629 385 q 628 311 629 347 q 622 240 628 275 q 600 172 615 206 q 557 106 585 139 l 629 -61 l 367 -61 l 340 0 q 197 29 265 -3 q 85 124 129 61 q 47 192 60 157 q 31 262 35 226 q 26 333 26 297 q 26 407 26 369 q 26 437 26 414 q 26 490 26 460 q 26 554 26 519 q 26 619 26 589 q 27 673 26 650 q 29 703 28 696 q 83 839 39 778 q 194 933 126 900 q 342 964 267 968 q 478 924 417 960 q 582 825 540 888 q 628 682 624 763 q 630 608 631 644 q 629 533 629 571 l 629 385 m 288 708 q 269 679 272 694 q 267 644 267 664 l 267 576 l 267 301 q 277 268 267 282 q 302 247 288 254 q 334 242 317 240 q 367 256 351 243 q 385 285 383 269 q 388 319 388 300 l 388 388 l 388 663 q 378 696 388 682 q 353 717 368 710 q 320 722 338 724 q 288 708 303 721 z "},"T":{"ha":578,"x_min":31,"x_max":546,"o":"m 31 947 l 546 947 l 546 710 l 407 710 l 407 0 l 169 0 l 169 710 l 31 710 l 31 947 l 31 947 z "},"V":{"ha":635,"x_min":22,"x_max":615,"o":"m 375 949 l 615 949 l 465 0 l 172 0 l 22 949 l 263 949 l 318 592 l 375 949 l 375 949 z "},"Z":{"ha":688,"x_min":36,"x_max":657,"o":"m 657 947 l 657 711 l 325 236 l 657 236 l 657 0 l 36 0 l 36 236 l 36 236 l 368 711 l 36 711 l 36 947 l 657 947 l 657 947 z "},"X":{"ha":675,"x_min":18,"x_max":653,"o":"m 653 949 l 463 474 l 653 0 l 397 0 l 336 154 l 274 0 l 18 0 l 208 474 l 18 949 l 274 949 l 336 793 l 397 949 l 653 949 l 653 949 z "},"Y":{"ha":654,"x_min":26,"x_max":618,"o":"m 618 947 l 618 597 q 572 431 618 506 q 440 321 525 357 l 440 0 l 204 0 l 204 321 q 73 431 119 357 q 26 597 26 506 l 26 947 l 263 947 l 263 724 l 263 611 q 274 557 263 581 q 322 533 286 533 q 369 557 358 533 q 381 611 381 581 l 381 724 l 381 947 l 618 947 z "},"?":{"ha":654,"x_min":31,"x_max":626,"o":"m 489 900 q 569 824 538 868 q 613 729 600 779 q 622 628 626 679 q 597 529 618 576 q 537 443 575 482 q 444 381 499 404 l 444 297 l 208 297 l 208 458 q 224 535 208 501 q 285 586 240 569 q 324 592 304 593 q 363 606 343 592 q 384 638 379 618 q 381 678 389 658 q 351 707 371 699 q 313 711 332 715 q 281 692 294 707 q 267 653 267 676 l 31 653 q 74 808 31 740 q 185 913 118 876 q 334 949 253 949 q 489 900 415 949 m 326 238 q 410 203 375 238 q 444 119 444 168 q 410 36 444 71 q 326 1 375 1 q 243 36 278 1 q 208 119 208 71 q 243 203 208 168 q 326 238 278 238 z "},"!":{"ha":310,"x_min":33,"x_max":271,"o":"m 271 949 l 271 297 l 33 297 l 33 949 l 271 949 m 151 238 q 198 228 176 238 q 235 203 219 219 q 261 166 251 188 q 271 119 271 144 q 261 73 271 94 q 235 35 251 51 q 198 10 219 19 q 151 0 176 0 q 105 10 126 0 q 67 35 83 19 q 42 73 51 51 q 33 119 33 94 q 68 203 33 168 q 151 238 103 238 z "},":":{"ha":290,"x_min":24,"x_max":263,"o":"m 144 238 q 228 203 193 238 q 263 118 263 168 q 228 35 263 69 q 144 0 193 0 q 60 35 94 0 q 25 118 25 69 q 60 203 25 168 q 144 238 94 238 m 143 946 q 226 911 192 946 q 261 826 261 876 q 226 743 261 778 q 143 708 192 708 q 58 743 93 708 q 24 826 24 778 q 58 911 24 876 q 143 946 93 946 z "},";":{"ha":290,"x_min":24,"x_max":267,"o":"m 143 946 q 226 911 192 946 q 261 826 261 876 q 226 743 261 778 q 143 708 192 708 q 58 743 93 708 q 24 826 24 778 q 58 911 24 876 q 143 946 93 946 m 264 126 q 265 122 264 124 q 264 121 267 121 q 226 -30 264 36 q 125 -147 188 -96 q 95 -151 111 -158 q 78 -126 79 -144 q 69 -62 75 -93 q 58 -33 65 -47 q 46 -4 51 -19 q 29 58 35 28 q 26 121 24 88 q 36 167 26 146 q 62 205 46 189 q 99 230 78 221 q 146 239 121 239 q 229 204 194 239 q 254 165 246 188 q 258 154 257 160 q 261 143 260 149 q 263 138 263 140 q 264 132 263 135 l 264 126 z "},".":{"ha":289,"x_min":25,"x_max":263,"o":"m 144 238 q 228 203 193 238 q 263 118 263 168 q 228 35 263 69 q 144 0 193 0 q 60 35 94 0 q 25 118 25 69 q 60 203 25 168 q 144 238 94 238 z "},",":{"ha":293,"x_min":24,"x_max":264,"o":"m 264 121 q 226 -30 264 36 q 125 -147 188 -96 q 95 -151 111 -158 q 78 -126 79 -144 q 69 -62 75 -93 q 58 -33 65 -47 q 46 -4 51 -19 q 29 58 35 28 q 26 121 24 88 q 36 167 26 146 q 62 205 46 189 q 99 230 78 221 q 146 239 121 239 q 229 204 194 239 q 254 165 246 188 q 258 154 257 160 q 261 143 260 149 q 263 137 263 140 q 264 126 263 133 l 264 121 z "},"D":{"ha":654,"x_min":35,"x_max":626,"o":"m 331 947 q 446 924 392 947 q 540 861 500 901 q 603 767 581 821 q 626 651 626 713 l 626 296 q 603 181 626 235 q 540 88 581 128 q 446 24 500 47 q 331 0 392 0 l 271 0 l 35 0 l 35 947 l 213 947 l 271 947 l 331 947 m 346 239 q 377 260 365 244 q 389 294 389 275 q 390 369 392 332 q 389 444 389 407 l 389 594 q 391 630 389 613 q 388 665 393 647 l 388 667 l 388 669 q 386 672 386 671 q 385 675 386 674 q 383 676 385 676 q 382 679 383 679 l 382 681 q 376 688 379 686 q 375 690 376 689 q 374 692 375 690 l 372 693 q 371 694 372 694 q 369 696 371 694 l 368 697 l 367 699 q 365 699 365 699 q 364 700 365 700 l 363 701 q 361 703 363 701 l 360 703 q 358 704 358 704 q 356 706 357 704 l 353 706 q 347 708 350 708 q 309 713 328 714 q 271 711 290 711 l 271 592 l 271 238 q 308 235 290 238 q 346 239 326 233 z "},"a":{"ha":654,"x_min":33,"x_max":626,"o":"m 576 814 q 619 705 613 760 q 626 589 626 650 l 626 503 l 626 354 l 626 0 l 389 0 l 389 236 l 271 236 l 271 0 l 33 0 l 33 469 q 33 516 33 483 q 33 586 33 549 q 34 656 33 624 q 38 703 35 689 q 81 812 49 763 q 163 896 114 861 q 272 942 214 931 q 385 942 329 953 q 492 898 442 931 q 576 814 542 865 m 276 675 q 269 642 268 658 q 271 608 271 625 l 271 474 l 389 474 l 389 608 q 390 642 389 625 q 383 675 392 658 q 329 710 368 710 q 276 675 292 710 z "},"b":{"ha":654,"x_min":35,"x_max":631,"o":"m 331 947 q 491 901 422 947 q 595 784 560 854 q 626 631 631 714 q 567 474 622 547 q 626 317 622 400 q 595 164 631 235 q 491 47 560 93 q 331 0 422 0 l 271 0 l 211 0 l 35 0 l 35 947 l 211 947 l 271 947 l 331 947 m 389 296 q 372 338 389 321 q 331 356 354 356 l 271 356 l 271 238 l 331 238 q 372 255 354 238 q 389 296 389 272 m 331 593 q 372 610 354 593 q 389 651 389 628 q 372 694 389 676 q 331 711 354 711 l 271 711 l 271 593 l 331 593 z "},"c":{"ha":654,"x_min":33,"x_max":625,"o":"m 621 297 l 625 297 q 592 160 625 222 q 504 59 558 99 q 381 6 450 19 q 242 14 313 -8 q 124 83 174 35 q 50 200 74 132 q 35 267 38 233 q 33 336 33 300 l 33 475 l 33 613 q 35 682 33 649 q 50 750 38 715 q 124 865 74 817 q 242 935 174 914 q 381 944 313 957 q 504 890 450 931 q 592 788 558 850 q 625 651 625 726 l 389 651 q 372 692 389 675 q 331 711 354 710 q 290 697 307 713 q 269 657 272 681 q 268 565 267 611 q 269 475 269 519 q 268 383 269 429 q 269 293 267 338 q 290 253 272 269 q 331 238 307 236 q 372 256 354 239 q 389 297 389 274 l 621 297 z "},"d":{"ha":654,"x_min":35,"x_max":626,"o":"m 331 947 q 446 924 392 947 q 540 861 500 901 q 603 767 581 821 q 626 651 626 713 l 626 296 q 603 181 626 235 q 540 88 581 128 q 446 24 500 47 q 331 0 392 0 l 271 0 l 35 0 l 35 947 l 213 947 l 271 947 l 331 947 m 346 239 q 377 260 365 244 q 389 294 389 275 q 390 369 392 332 q 389 444 389 407 l 389 594 q 391 630 389 613 q 388 665 393 647 l 388 667 l 388 669 q 386 672 386 671 q 385 675 386 674 q 383 676 385 676 q 382 679 383 679 l 382 681 q 376 688 379 686 q 375 690 376 689 q 374 692 375 690 l 372 693 q 371 694 372 694 q 369 696 371 694 l 368 697 l 367 699 q 365 699 365 699 q 364 700 365 700 l 363 701 q 361 703 363 701 l 360 703 q 358 704 358 704 q 356 706 357 704 l 353 706 q 347 708 350 708 q 309 713 328 714 q 271 711 290 711 l 271 592 l 271 238 q 308 235 290 238 q 346 239 326 233 z "},"e":{"ha":654,"x_min":29,"x_max":621,"o":"m 621 711 l 265 711 l 265 593 l 621 593 l 621 356 l 265 356 l 265 238 l 621 238 l 621 0 l 265 0 l 207 0 l 29 0 l 29 949 l 207 949 l 265 949 l 621 949 l 621 711 l 621 711 z "},"f":{"ha":654,"x_min":33,"x_max":626,"o":"m 626 711 l 271 711 l 271 592 l 626 592 l 626 356 l 271 356 l 271 238 l 271 0 l 211 0 l 33 0 l 33 947 l 211 947 l 271 947 l 626 947 l 626 711 l 626 711 z "},"g":{"ha":654,"x_min":28,"x_max":621,"o":"m 285 593 l 621 593 l 621 297 q 588 160 621 222 q 500 59 554 99 q 377 6 446 19 q 238 15 308 -7 q 119 85 169 36 q 44 200 68 133 q 31 268 33 235 q 28 336 28 301 l 28 475 l 28 614 q 31 683 28 649 q 44 750 33 717 q 119 866 68 817 q 238 936 169 915 q 377 944 308 958 q 500 891 446 931 q 588 790 554 851 q 621 653 621 728 l 383 653 q 367 694 383 676 q 326 713 350 711 q 285 697 303 714 q 265 657 268 681 q 264 566 263 611 q 265 475 265 521 q 264 385 265 431 q 265 293 263 339 q 285 253 268 269 q 326 239 303 238 q 367 256 350 239 q 383 297 383 274 l 383 357 l 285 357 l 285 593 z "},"h":{"ha":654,"x_min":32,"x_max":624,"o":"m 388 949 l 624 949 l 624 593 l 624 356 l 624 0 l 388 0 l 388 356 l 268 356 l 268 0 l 32 0 l 32 356 l 32 593 l 32 949 l 268 949 l 268 593 l 388 593 l 388 949 l 388 949 z "},"i":{"ha":329,"x_min":47,"x_max":285,"o":"m 47 947 l 285 947 l 285 0 l 47 0 l 47 947 l 47 947 z "},"j":{"ha":654,"x_min":22,"x_max":615,"o":"m 615 949 l 615 651 l 615 474 l 615 335 q 613 267 615 300 q 599 199 610 233 q 524 83 575 132 q 406 13 474 33 q 266 4 335 -10 q 143 58 197 18 q 56 159 89 97 q 22 296 22 221 l 26 296 l 260 296 q 276 255 260 272 q 317 238 293 238 q 358 252 340 236 q 378 292 375 268 q 379 383 381 338 q 378 474 378 429 l 378 656 l 378 949 l 615 949 z "},"k":{"ha":654,"x_min":38,"x_max":631,"o":"m 631 949 l 394 474 l 631 0 l 365 0 l 275 183 l 275 0 l 38 0 l 38 238 l 38 949 l 215 949 l 275 949 l 275 765 l 365 949 l 631 949 l 631 949 z "},"l":{"ha":571,"x_min":40,"x_max":536,"o":"m 278 238 l 536 238 l 536 0 l 278 0 l 40 0 l 40 238 l 40 947 l 278 947 l 278 238 l 278 238 z "},"m":{"ha":1033,"x_min":46,"x_max":996,"o":"m 994 654 q 995 327 996 490 q 994 0 994 164 l 757 0 l 757 296 l 757 356 l 757 521 l 757 632 q 746 688 757 664 q 699 711 735 711 q 651 688 663 711 q 639 633 639 664 l 639 521 l 639 332 l 639 296 l 639 0 l 401 0 l 401 296 l 401 356 l 401 521 l 401 632 q 390 688 401 664 q 343 711 379 711 q 295 688 307 711 q 283 633 283 664 l 283 521 l 283 332 l 283 296 l 283 0 l 47 0 q 47 327 47 164 q 47 654 46 490 q 94 814 47 746 q 212 917 142 882 q 365 948 282 953 q 521 889 447 943 q 676 948 593 943 q 830 917 760 953 q 947 814 900 882 q 994 654 994 746 z "},"n":{"ha":654,"x_min":35,"x_max":626,"o":"m 571 825 q 606 761 594 793 q 622 696 618 729 q 626 628 626 663 q 626 558 626 593 l 626 0 l 390 0 l 390 296 l 390 356 l 390 521 l 390 632 q 378 688 390 664 q 331 711 367 711 q 283 688 294 711 q 272 633 272 664 l 272 521 l 272 332 l 272 296 l 272 0 l 35 0 l 35 558 q 35 628 35 593 q 40 696 35 663 q 56 762 44 729 q 92 826 68 794 q 197 916 133 885 q 331 947 260 947 q 466 915 403 947 q 571 825 529 883 z "},"o":{"ha":640,"x_min":32,"x_max":624,"o":"m 590 789 q 617 713 610 751 q 624 635 624 675 l 624 474 l 624 313 q 617 233 624 271 q 590 158 610 196 q 481 42 551 85 q 328 0 411 0 q 175 42 244 0 q 67 157 106 85 q 40 233 47 196 q 32 313 32 271 l 32 474 l 32 635 q 40 714 32 676 q 67 789 47 751 q 175 905 106 863 q 328 947 244 947 q 481 905 411 947 q 590 789 551 863 m 367 251 q 385 280 382 265 q 388 314 388 294 l 388 381 l 388 651 q 378 685 388 671 q 353 706 368 699 q 320 710 338 713 q 289 696 303 708 q 272 667 274 682 q 269 633 269 651 l 269 567 l 269 296 q 279 263 269 276 q 303 242 289 249 q 335 238 318 236 q 367 251 353 239 z "},"p":{"ha":654,"x_min":35,"x_max":626,"o":"m 331 947 q 446 924 392 947 q 540 860 500 900 q 603 765 581 819 q 626 650 626 711 q 603 535 626 589 q 539 442 579 482 q 445 378 499 401 q 331 356 392 356 l 328 356 l 271 356 l 271 0 l 35 0 l 35 947 l 271 947 l 331 947 m 389 651 q 372 694 389 676 q 331 711 354 711 l 271 711 l 271 592 l 331 592 q 372 609 354 592 q 389 651 389 626 z "},"q":{"ha":654,"x_min":26,"x_max":631,"o":"m 629 385 q 628 311 629 347 q 622 240 628 275 q 600 172 615 206 q 557 106 585 139 l 629 -61 l 367 -61 l 340 0 q 197 29 265 -3 q 85 124 129 61 q 47 192 60 157 q 31 262 35 226 q 26 333 26 297 q 26 407 26 369 q 26 437 26 414 q 26 490 26 460 q 26 554 26 519 q 26 619 26 589 q 27 673 26 650 q 29 703 28 696 q 83 839 39 778 q 194 933 126 900 q 342 964 267 968 q 478 924 417 960 q 582 825 540 888 q 628 682 624 763 q 630 608 631 644 q 629 533 629 571 l 629 385 m 288 708 q 269 679 272 694 q 267 644 267 664 l 267 576 l 267 301 q 277 268 267 282 q 302 247 288 254 q 334 242 317 240 q 367 256 351 243 q 385 285 383 269 q 388 319 388 300 l 388 388 l 388 663 q 378 696 388 682 q 353 717 368 710 q 320 722 338 724 q 288 708 303 721 z "},"r":{"ha":654,"x_min":36,"x_max":628,"o":"m 569 474 q 619 362 610 418 q 628 243 628 306 l 628 0 l 392 0 l 392 224 q 392 247 392 232 q 392 278 393 263 q 388 310 390 294 q 378 333 385 325 q 356 349 369 344 q 327 355 342 354 q 298 355 313 356 q 272 354 283 354 l 272 0 l 214 0 l 36 0 l 36 947 l 214 947 q 311 947 264 947 q 402 938 358 947 q 487 905 446 929 q 565 833 528 881 q 612 747 596 793 q 628 654 628 701 q 613 560 628 607 q 569 474 599 514 m 392 651 q 380 686 392 671 q 349 708 368 701 q 310 712 329 714 q 272 710 292 710 l 272 592 q 310 590 292 592 q 349 594 329 588 q 380 616 368 600 q 392 651 392 632 z "},"s":{"ha":654,"x_min":31,"x_max":626,"o":"m 329 593 q 449 569 394 593 q 542 503 503 544 q 603 410 581 463 q 626 302 625 358 q 606 190 626 246 q 538 88 585 135 q 436 20 492 42 q 324 0 381 -1 q 215 24 268 1 q 122 85 163 46 q 56 177 81 124 q 32 297 32 231 l 269 297 q 280 263 269 278 q 306 242 290 249 q 340 239 322 236 q 371 256 357 242 q 388 287 385 269 q 384 320 390 304 q 363 347 378 336 q 329 357 349 357 q 210 381 264 357 q 117 447 156 406 q 56 540 78 488 q 32 648 33 592 q 51 760 31 704 q 119 863 72 815 q 222 930 167 908 q 333 950 276 951 q 442 926 389 949 q 535 865 494 904 q 601 772 576 826 q 625 653 625 718 l 388 653 q 377 687 388 672 q 351 708 367 701 q 317 711 335 714 q 286 694 300 708 q 270 663 272 681 q 274 630 268 646 q 295 603 281 614 q 329 593 310 593 z "},"t":{"ha":578,"x_min":31,"x_max":546,"o":"m 31 947 l 546 947 l 546 710 l 407 710 l 407 0 l 169 0 l 169 710 l 31 710 l 31 947 l 31 947 z "},"u":{"ha":654,"x_min":31,"x_max":624,"o":"m 624 947 l 624 592 l 624 474 l 624 313 q 616 233 624 271 q 589 158 608 196 q 480 42 550 85 q 326 0 410 0 q 174 42 243 0 q 65 157 104 83 q 38 233 46 194 q 31 313 31 271 l 31 474 l 31 603 l 31 947 l 268 947 l 268 651 l 268 592 l 268 426 l 268 315 q 279 260 268 283 q 326 236 290 236 q 374 260 363 236 q 386 315 386 283 l 386 426 l 386 615 l 386 651 l 386 947 l 624 947 z "},"v":{"ha":635,"x_min":22,"x_max":615,"o":"m 375 949 l 615 949 l 465 0 l 172 0 l 22 949 l 263 949 l 318 592 l 375 949 l 375 949 z "},"w":{"ha":1025,"x_min":38,"x_max":989,"o":"m 986 949 q 988 622 986 785 q 986 294 989 458 q 939 135 986 203 q 822 31 892 67 q 668 1 751 -4 q 513 60 585 6 q 356 1 439 6 q 203 31 274 -4 q 86 135 133 67 q 39 294 39 203 q 38 622 38 458 q 39 949 39 785 l 276 949 l 276 653 l 276 593 l 276 428 l 276 315 q 288 261 276 285 q 335 238 299 238 q 383 261 371 238 q 394 315 394 285 l 394 428 l 394 617 l 394 653 l 394 949 l 631 949 l 631 653 l 631 593 l 631 428 l 631 315 q 642 261 631 285 q 690 238 654 238 q 738 261 726 238 q 750 315 750 285 l 750 428 l 750 617 l 750 653 l 750 949 l 986 949 l 986 949 z "},"x":{"ha":675,"x_min":18,"x_max":653,"o":"m 653 949 l 463 474 l 653 0 l 397 0 l 336 154 l 274 0 l 18 0 l 208 474 l 18 949 l 274 949 l 336 793 l 397 949 l 653 949 l 653 949 z "},"y":{"ha":654,"x_min":26,"x_max":618,"o":"m 618 947 l 618 597 q 572 431 618 506 q 440 321 525 357 l 440 0 l 204 0 l 204 321 q 73 431 119 357 q 26 597 26 506 l 26 947 l 263 947 l 263 724 l 263 611 q 274 557 263 581 q 322 533 286 533 q 369 557 358 533 q 381 611 381 581 l 381 724 l 381 947 l 618 947 z "},"z":{"ha":688,"x_min":36,"x_max":657,"o":"m 657 947 l 657 711 l 325 236 l 657 236 l 657 0 l 36 0 l 36 236 l 36 236 l 368 711 l 36 711 l 36 947 l 657 947 l 657 947 z "},"B":{"ha":654,"x_min":35,"x_max":631,"o":"m 331 947 q 491 901 422 947 q 595 784 560 854 q 626 631 631 714 q 567 474 622 547 q 626 317 622 400 q 595 164 631 235 q 491 47 560 93 q 331 0 422 0 l 271 0 l 211 0 l 35 0 l 35 947 l 211 947 l 271 947 l 331 947 m 389 296 q 372 338 389 321 q 331 356 354 356 l 271 356 l 271 238 l 331 238 q 372 255 354 238 q 389 296 389 272 m 331 593 q 372 610 354 593 q 389 651 389 628 q 372 694 389 676 q 331 711 354 711 l 271 711 l 271 593 l 331 593 z "},"C":{"ha":654,"x_min":33,"x_max":625,"o":"m 621 297 l 625 297 q 592 160 625 222 q 504 59 558 99 q 381 6 450 19 q 242 14 313 -8 q 124 83 174 35 q 50 200 74 132 q 35 267 38 233 q 33 336 33 300 l 33 475 l 33 613 q 35 682 33 649 q 50 750 38 715 q 124 865 74 817 q 242 935 174 914 q 381 944 313 957 q 504 890 450 931 q 592 788 558 850 q 625 651 625 726 l 389 651 q 372 692 389 675 q 331 711 354 710 q 290 697 307 713 q 269 657 272 681 q 268 565 267 611 q 269 475 269 519 q 268 383 269 429 q 269 293 267 338 q 290 253 272 269 q 331 238 307 236 q 372 256 354 239 q 389 297 389 274 l 621 297 z "},"A":{"ha":654,"x_min":33,"x_max":626,"o":"m 576 814 q 619 705 613 760 q 626 589 626 650 l 626 503 l 626 354 l 626 0 l 389 0 l 389 236 l 271 236 l 271 0 l 33 0 l 33 469 q 33 516 33 483 q 33 586 33 549 q 34 656 33 624 q 38 703 35 689 q 81 812 49 763 q 163 896 114 861 q 272 942 214 931 q 385 942 329 953 q 492 898 442 931 q 576 814 542 865 m 276 675 q 269 642 268 658 q 271 608 271 625 l 271 474 l 389 474 l 389 608 q 390 642 389 625 q 383 675 392 658 q 329 710 368 710 q 276 675 292 710 z "}}}
